<?xml version="1.0" encoding="UTF-8"?><svg id="Layer_1" xmlns="http://www.w3.org/2000/svg" width="24" height="24" viewBox="0 0 24 24"><defs><style>.cls-1{fill:#fff;}</style></defs><path class="cls-1" d="m13.97,1.8c-4.54,0-8.23,3.67-8.23,8.21,0,1.86.63,3.67,1.79,5.12l-5.73,5.73,1.34,1.34,5.73-5.73c3.56,2.82,8.73,2.22,11.56-1.34,2.82-3.56,2.22-8.73-1.34-11.56-1.45-1.15-3.26-1.78-5.11-1.78Zm3.57,13.46c-2.15,1.47-4.99,1.47-7.14,0v-.13c.03-1.97,1.65-3.55,3.62-3.52,1.93.03,3.49,1.59,3.52,3.52v.14Zm-4.79-6.89c0-.71.58-1.29,1.29-1.29.71,0,1.29.58,1.29,1.29,0,.71-.58,1.29-1.29,1.29h0c-.71,0-1.29-.58-1.29-1.29Zm6.46,5.22c-.41-1.4-1.37-2.58-2.65-3.28,1.08-1.39.82-3.39-.57-4.46-1.39-1.08-3.39-.82-4.46.57-.87,1.13-.89,2.7-.04,3.84-1.34.68-2.34,1.88-2.76,3.33-1.97-2.9-1.21-6.84,1.68-8.8,2.9-1.97,6.84-1.21,8.8,1.68,1.46,2.15,1.46,4.98,0,7.13h0Z"/></svg>