<?xml version="1.0" encoding="UTF-8"?><svg id="Layer_1" xmlns="http://www.w3.org/2000/svg" width="60" height="60" viewBox="0 0 60 60"><defs><style>.cls-1{fill:#fff;}</style></defs><path class="cls-1" d="M35.22,3c-12.01,0-21.78,9.77-21.78,21.78,0,5.1,1.77,9.8,4.72,13.52h0l-15.17,15.17,3.54,3.54,15.17-15.17h0c3.72,2.95,8.41,4.72,13.52,4.72,12.01,0,21.78-9.77,21.78-21.78S47.23,3,35.22,3ZM44.67,38.63c-2.69,1.84-5.94,2.92-9.44,2.92s-6.76-1.09-9.46-2.93v-.36c0-2.52.98-4.9,2.77-6.68,1.78-1.79,4.16-2.77,6.68-2.77s4.9.98,6.68,2.77c1.79,1.78,2.77,4.16,2.77,6.68,0,0,0,.37,0,.37ZM32,20.39c0-1.88,1.53-3.41,3.41-3.41s3.41,1.53,3.41,3.41-1.53,3.41-3.41,3.41-3.41-1.53-3.41-3.41ZM49.09,34.2c-.67-2.31-1.91-4.42-3.65-6.16-1.01-1.01-2.14-1.85-3.37-2.51,1.1-1.42,1.76-3.2,1.76-5.14,0-4.64-3.78-8.42-8.42-8.42s-8.42,3.78-8.42,8.42c0,1.87.62,3.6,1.66,5-1.33.68-2.57,1.57-3.66,2.66-1.74,1.74-2.97,3.85-3.65,6.15-1.83-2.69-2.9-5.92-2.9-9.41,0-9.25,7.52-16.77,16.77-16.77s16.77,7.52,16.77,16.77c0,3.49-1.07,6.74-2.91,9.42h.02Z"/></svg>