<?xml version="1.0" encoding="UTF-8"?><svg id="Logo" xmlns="http://www.w3.org/2000/svg" viewBox="0 0 600 90.95"><defs><style>.cls-1{stroke-width:0px;}</style></defs><path class="cls-1" d="M63.42,17.59c-5.6,0-9.9,2.21-12.33,5.37l3.96,4.69c1.24-1.98,4.58-4.47,8.03-4.47,3,0,4.98,1.53,4.98,3.62,0,1.7-.91,3.11-3.45,3.34l-2.6.28c-6.67.73-13.52,3.39-13.52,10.69,0,5.99,4.58,9.5,10.12,9.5,4.81,0,7.52-2.32,9.22-4.3v3.56h7.01v-22.34c0-6.22-4.19-9.95-11.42-9.95ZM67.89,40.72c-1.7,2.15-4.41,4.3-7.69,4.3-2.77,0-4.92-1.7-4.92-4.18,0-3.51,3.62-4.98,7.75-5.49l4.75-.57h.11v5.94Z"/><path class="cls-1" d="M98.3,17.59c-4.07,0-7.8,2.04-10.29,4.3v-3.56h-6.95v31.55h6.95v-22.68c1.58-1.47,4.98-3.73,7.63-3.73,3.22,0,4.52,2.66,4.52,5.77v20.64h6.95v-22.45c0-7.69-5.09-9.84-8.82-9.84Z"/><path class="cls-1" d="M131.6,40.55c-1.98,2.2-4.52,3.96-7.24,3.96-3.28,0-4.86-2.54-4.86-6.22v-19.96h-6.96v22.22c0,7.92,5.65,10.06,9.73,10.06s7.18-2.32,9.1-4.13v3.39h7.18v-31.55h-6.95v22.22Z"/><polygon class="cls-1" points="146.24 49.88 153.19 49.88 153.19 1.47 146.24 8.37 146.24 49.88"/><path class="cls-1" d="M164.5,4.13c-2.43,0-4.47,1.98-4.47,4.41s2.04,4.47,4.47,4.47,4.41-2.04,4.41-4.47-2.04-4.41-4.41-4.41Z"/><rect class="cls-1" x="160.88" y="18.32" width="7.24" height="31.55"/><path class="cls-1" d="M183.55,18.32v-6.11c0-2.71,1.81-4.35,4.02-4.35,1.41,0,2.88.56,3.84,1.13l2.21-5.43c-1.53-.79-4.07-1.64-7.13-1.64-6.56,0-9.9,4.69-9.9,9.9v6.5h-4.24v5.77h4.24v25.79h6.96v-25.79h6.62l1.64-5.77h-8.26Z"/><path class="cls-1" d="M206.51,44.68c-4.35,0-8.03-3.62-8.09-8.71h21.55c.34-12.89-5.54-18.38-13.91-18.38s-14.82,7.13-14.82,16.51,5.6,16.51,14.59,16.51c5.71,0,10.63-3,13.18-6.73l-4.35-4.07c-1.47,2.66-4.86,4.86-8.14,4.86ZM206,23.19c4.24,0,6.67,3.62,6.67,7.46h-14.02c.11-3.62,3.28-7.46,7.35-7.46Z"/><polygon class="cls-1" points="22.21 27.63 22.09 27.63 9.2 6.08 1 6.08 1 49.88 8.58 49.88 8.58 18.86 8.69 18.86 22.04 40.92 35.32 18.86 35.44 18.86 35.44 49.88 43.07 49.88 43.07 6.08 35.04 6.08 22.21 27.63"/><path class="cls-1" d="M1,64.94h2.44l3.97,20.19h.07l4.42-20.19h2.67l4.16,20.12h.07l4.36-20.12h2.4l-5.49,24.09h-2.7l-4.16-20.12h-.06l-4.39,20.12h-2.67l-5.07-24.09Z"/><path class="cls-1" d="M27.06,80.47c0-5.75,2.73-8.87,6.96-8.87s6.11,3.58,6.11,8.42c0,.29,0,.52-.03.81h-10.56c-.03,4.81,1.98,6.76,4.68,6.76,1.82,0,3.35-1.4,4.23-2.93l1.5,1.4c-1.17,1.89-3.19,3.41-6.01,3.41-4.1,0-6.86-3.02-6.86-9ZM37.66,79.11c.03-2.89-1.01-5.66-3.87-5.66s-4.13,2.99-4.16,5.66h8.03Z"/><path class="cls-1" d="M43.08,84.34c0-3.64,2.47-5.3,7.54-6.02,1.82-.23,2.31-.55,2.31-2.11,0-1.82-1.17-2.7-2.89-2.7-1.89,0-3.45,1.2-4.42,2.67l-1.33-1.66c1.33-1.72,3.22-2.93,5.98-2.93,3.19,0,5.04,1.59,5.04,5.1v12.32h-2.37v-2.11c-1.46,1.46-2.86,2.57-4.91,2.57-2.6,0-4.94-1.85-4.94-5.13ZM52.86,84.77v-4.88h-.07l-2.08.29c-3.67.52-5.27,1.72-5.27,4.1,0,1.98,1.17,3.28,3.12,3.28,1.63,0,3.22-1.4,4.29-2.79Z"/><path class="cls-1" d="M60.27,65.1l2.41-1.4v25.32h-2.41v-23.92Z"/><path class="cls-1" d="M68.29,84.57v-10.5h-2.47v-2.01h2.47v-4.52l2.41-1.46v5.98h3.8v2.01h-3.8v10.96c0,1.56.55,2.47,1.79,2.47.71,0,1.5-.42,2.05-.85l.07,2.05c-.65.39-1.59.78-2.7.78-2.47,0-3.61-1.43-3.61-4.91Z"/><path class="cls-1" d="M77.91,65.1l2.41-1.4v10.14c1.27-1.14,2.86-2.24,4.94-2.24,2.24,0,4.26,1.2,4.26,5.3v12.13h-2.41v-12.06c0-1.53-.68-3.41-2.57-3.41-1.66,0-3.32,1.43-4.22,2.31v13.16h-2.41v-23.92Z"/></svg>