<?xml version="1.0" encoding="UTF-8"?><svg id="Layer_1" xmlns="http://www.w3.org/2000/svg" width="24" height="24" viewBox="0 0 24 24"><defs><style>.cls-1{fill:#fff;}</style></defs><path class="cls-1" d="m21.18,14.9l-.4-.41c-1.34-1.34-3.39-1.67-5.09-.84l-.13.07-5.29-5.28.07-.13c1.07-2.21.16-4.88-2.05-5.96-2.2-1.08-4.86-.16-5.94,2.04,0,0,0,.01,0,.02-.84,1.72-.48,3.78.87,5.12l11.27,11.29c1.74,1.75,4.57,1.75,6.32,0,0,0,0,0,0,0,1.59-1.6,1.75-4.12.38-5.91Zm-1.71,4.58c-1.01,1.02-2.66,1.02-3.67,0,0,0,0,0,0,0L4.53,8.19c-.79-.78-.99-1.98-.51-2.98.62-1.28,2.15-1.81,3.43-1.19,0,0,0,0,.01,0,1.28.63,1.81,2.17,1.19,3.46l-.65,1.34,7.18,7.17,1.34-.66c.98-.48,2.17-.29,2.94.48l.27.27c.76,1.04.65,2.48-.26,3.39Z"/></svg>