<?xml version="1.0" encoding="UTF-8"?><svg id="Layer_1" xmlns="http://www.w3.org/2000/svg" width="60" height="60" viewBox="0 0 60 60"><defs><style>.cls-1{fill:#fff;}</style></defs><path class="cls-1" d="M30.25,3L6.54,26.66v30.34h46.93v-30.39L30.25,3ZM48.47,52H11.53v-23.28L30.25,10.08l18.22,18.61v23.31Z"/><path class="cls-1" d="M29.42,26.89c-1.32-1.43-3.09-2.22-4.99-2.22h0c-1.9,0-3.67.79-4.99,2.22l-.43.47c-2.64,2.86-2.64,7.52,0,10.38l10.99,11.9,10.99-11.9c2.64-2.86,2.64-7.52,0-10.38l-.43-.47c-1.32-1.43-3.09-2.22-4.99-2.22h0c-1.9,0-3.67.79-4.99,2.22l-.58.62s-.58-.62-.58-.62ZM32.81,30.34c.53-.58,1.23-.89,1.98-.89s1.44.32,1.98.89l.37.4c1.16,1.26,1.16,3.39,0,4.65l-7.13,7.73-7.13-7.73c-1.16-1.26-1.16-3.39,0-4.65l.37-.4c.53-.58,1.23-.89,1.98-.89s1.45.32,1.98.89l2.81,3.04,2.81-3.04h-.02Z"/></svg>