<?xml version="1.0" encoding="UTF-8"?><svg id="Logo" xmlns="http://www.w3.org/2000/svg" viewBox="0 0 600 49.72"><defs><style>.cls-1{fill:#fff;}.cls-1,.cls-2{stroke-width:0px;}.cls-2{fill:#00a758;}</style></defs><path class="cls-1" d="M83.44,12.39c-2.68,0-4.73,1.05-5.89,2.57l1.89,2.24c.59-.95,2.19-2.14,3.84-2.14,1.43,0,2.38.73,2.38,1.73,0,.81-.43,1.49-1.65,1.59l-1.24.14c-3.19.35-6.46,1.62-6.46,5.11,0,2.87,2.19,4.54,4.84,4.54,2.3,0,3.59-1.11,4.41-2.05v1.7h3.35v-10.68c0-2.97-2-4.76-5.46-4.76ZM85.58,23.45c-.81,1.03-2.11,2.05-3.68,2.05-1.32,0-2.35-.81-2.35-2,0-1.68,1.73-2.38,3.7-2.62l2.27-.27h.05v2.84Z"/><path class="cls-1" d="M100.12,12.39c-1.95,0-3.73.97-4.92,2.05v-1.7h-3.32v15.08h3.32v-10.84c.76-.7,2.38-1.78,3.65-1.78,1.54,0,2.16,1.27,2.16,2.76v9.87h3.32v-10.73c0-3.68-2.43-4.7-4.22-4.7Z"/><path class="cls-1" d="M116.03,23.37c-.95,1.05-2.16,1.89-3.46,1.89-1.57,0-2.32-1.22-2.32-2.97v-9.54h-3.32v10.62c0,3.78,2.7,4.81,4.65,4.81s3.43-1.11,4.35-1.97v1.62h3.43v-15.08h-3.32v10.62Z"/><polygon class="cls-1" points="123.03 27.83 126.35 27.83 126.35 4.69 123.03 7.99 123.03 27.83"/><path class="cls-1" d="M131.76,5.96c-1.16,0-2.14.95-2.14,2.11s.97,2.14,2.14,2.14,2.11-.97,2.11-2.14-.97-2.11-2.11-2.11Z"/><rect class="cls-1" x="130.03" y="12.74" width="3.46" height="15.08"/><path class="cls-1" d="M140.86,12.75v-2.92c0-1.3.87-2.08,1.92-2.08.68,0,1.38.27,1.84.54l1.05-2.59c-.73-.38-1.95-.78-3.41-.78-3.13,0-4.73,2.24-4.73,4.73v3.11h-2.03v2.76h2.03v12.33h3.32v-12.33h3.16l.78-2.76h-3.95Z"/><path class="cls-1" d="M151.83,25.34c-2.08,0-3.84-1.73-3.86-4.16h10.3c.16-6.16-2.65-8.78-6.65-8.78s-7.08,3.41-7.08,7.89,2.68,7.89,6.97,7.89c2.73,0,5.08-1.43,6.3-3.22l-2.08-1.95c-.7,1.27-2.32,2.32-3.89,2.32ZM151.59,15.07c2.03,0,3.19,1.73,3.19,3.57h-6.7c.05-1.73,1.57-3.57,3.51-3.57Z"/><polygon class="cls-1" points="63.75 17.19 63.69 17.19 57.53 6.89 53.61 6.89 53.61 27.83 57.23 27.83 57.23 13 57.29 13 63.66 23.54 70.02 13 70.07 13 70.07 27.83 73.72 27.83 73.72 6.89 69.88 6.89 63.75 17.19"/><polygon class="cls-2" points="22.21 8.2 22.21 31.75 27.44 26.52 27.44 2.97 22.21 8.2"/><polygon class="cls-2" points="11.74 31.75 16.98 26.52 16.98 2.97 11.74 8.2 11.74 31.75"/><polygon class="cls-2" points="1.28 31.75 6.51 26.52 6.51 2.97 1.28 8.2 1.28 31.75"/><path class="cls-1" d="M53.61,35.03h1.16l1.9,9.65h.03l2.11-9.65h1.27l1.99,9.62h.03l2.08-9.62h1.15l-2.63,11.51h-1.29l-1.99-9.62h-.03l-2.1,9.62h-1.27l-2.42-11.51Z"/><path class="cls-1" d="M66.06,42.45c0-2.75,1.31-4.24,3.32-4.24s2.92,1.71,2.92,4.02c0,.14,0,.25-.02.39h-5.05c-.02,2.3.95,3.23,2.24,3.23.87,0,1.6-.67,2.02-1.4l.71.67c-.56.9-1.52,1.63-2.87,1.63-1.96,0-3.28-1.44-3.28-4.3ZM71.13,41.8c.02-1.38-.48-2.7-1.85-2.7s-1.97,1.43-1.99,2.7h3.84Z"/><path class="cls-1" d="M73.72,44.3c0-1.74,1.18-2.53,3.6-2.87.87-.11,1.1-.26,1.1-1.01,0-.87-.56-1.29-1.38-1.29-.9,0-1.65.57-2.11,1.27l-.64-.79c.64-.82,1.54-1.4,2.86-1.4,1.52,0,2.41.76,2.41,2.44v5.89h-1.13v-1.01c-.7.7-1.37,1.23-2.35,1.23-1.24,0-2.36-.89-2.36-2.45ZM78.4,44.5v-2.33h-.03l-.99.14c-1.76.25-2.52.82-2.52,1.96,0,.95.56,1.57,1.49,1.57.78,0,1.54-.67,2.05-1.34Z"/><path class="cls-1" d="M81.94,35.1l1.15-.67v12.1h-1.15v-11.43Z"/><path class="cls-1" d="M85.77,44.41v-5.02h-1.18v-.96h1.18v-2.16l1.15-.7v2.86h1.82v.96h-1.82v5.24c0,.75.26,1.18.85,1.18.34,0,.71-.2.98-.4l.03.98c-.31.19-.76.37-1.29.37-1.18,0-1.73-.68-1.73-2.35Z"/><path class="cls-1" d="M90.37,35.1l1.15-.67v4.85c.61-.54,1.37-1.07,2.36-1.07,1.07,0,2.04.57,2.04,2.53v5.8h-1.15v-5.76c0-.73-.33-1.63-1.23-1.63-.79,0-1.58.68-2.02,1.1v6.29h-1.15v-11.43Z"/></svg>