<svg xmlns="http://www.w3.org/2000/svg" width="24" height="24" viewBox="0 0 24 24">
    <g fill="none" fill-rule="evenodd">
        <path fill="#FFFFFF" fill-rule="nonzero" d="M12 13.448a1.61 1.61 0 0 0 1.608-1.608A1.61 1.61 0 0 0 12 10.23a1.61 1.61 0 0 0-1.61 1.61A1.61 1.61 0 0 0 12 13.448zm0-5.217a3.613 3.613 0 0 1 3.608 3.609c0 1.99-1.619 3.608-3.608 3.608a3.613 3.613 0 0 1-3.61-3.608c0-1.99 1.62-3.61 3.61-3.61zm8.54 3.89l.044-.09-.044-.09a9.579 9.579 0 0 0-4.31-4.338 9.43 9.43 0 0 0-4.237-1 9.475 9.475 0 0 0-8.533 5.283l-.045.09.044.09a9.592 9.592 0 0 0 8.559 5.338h.04a9.471 9.471 0 0 0 8.481-5.282zm1.796-1.06l.48.978-.486.974a11.462 11.462 0 0 1-10.267 6.39h-.045c-4.368 0-8.432-2.534-10.355-6.456l-.478-.977.485-.974a11.463 11.463 0 0 1 10.323-6.392c1.79 0 3.515.406 5.128 1.208a11.581 11.581 0 0 1 5.215 5.25z"/>
    </g>
</svg>
